<?xml version="1.0" encoding="UTF-8"?><svg id="Layer_1" xmlns="http://www.w3.org/2000/svg" viewBox="0 0 646.54 293.89"><path d="M39.71,293.85h-1.25c-2.41-.31-4.69-1.19-6.32-3.14-2.66-3.18-3.1-7.61-.83-11.19,2.04-3.21,6.18-5.04,10.23-3.98,3.58.94,6.48,4.06,6.85,8.05.52,5.46-3.38,9.88-8.68,10.25h0ZM46.45,283.73c-.37-3.66-3.13-6.16-6.44-6.55s-6.71,1.56-7.82,4.88c-.91,2.74-.33,5.55,1.57,7.6,1.79,1.92,4.62,2.76,7.35,2.05,3.53-.91,5.71-4.21,5.33-7.99h0Z" fill="#0a0b0b"/><path d="M131.59,293.85h-1.25c-2.41-.31-4.69-1.19-6.32-3.14-2.66-3.18-3.1-7.61-.83-11.19,2.04-3.21,6.18-5.04,10.23-3.98,3.58.94,6.48,4.06,6.85,8.05.52,5.46-3.38,9.88-8.68,10.25h0ZM138.34,283.73c-.37-3.66-3.13-6.16-6.44-6.55s-6.71,1.56-7.82,4.88c-.91,2.74-.33,5.55,1.57,7.6,1.79,1.92,4.62,2.76,7.35,2.05,3.53-.91,5.71-4.21,5.33-7.99h0Z" fill="#0a0b0b"/><path d="M211.96,293.85h-1.25c-2.41-.31-4.69-1.19-6.32-3.14-2.66-3.18-3.1-7.61-.83-11.19,2.04-3.21,6.18-5.04,10.23-3.98,3.58.94,6.48,4.06,6.85,8.05.52,5.46-3.38,9.88-8.68,10.25h0ZM218.71,283.73c-.37-3.66-3.13-6.16-6.44-6.55s-6.71,1.56-7.82,4.88c-.91,2.74-.33,5.55,1.57,7.6,1.79,1.92,4.62,2.76,7.35,2.05,3.53-.91,5.71-4.21,5.33-7.99h0Z" fill="#0a0b0b"/><path d="M320.4,293.85h-1.25c-2.41-.31-4.69-1.19-6.32-3.14-2.66-3.18-3.1-7.61-.83-11.19,2.04-3.21,6.18-5.04,10.23-3.98,3.58.94,6.48,4.06,6.85,8.05.52,5.46-3.38,9.88-8.68,10.25h0ZM327.15,283.73c-.37-3.66-3.13-6.16-6.44-6.55s-6.71,1.56-7.82,4.88c-.91,2.74-.33,5.55,1.57,7.6,1.79,1.92,4.62,2.76,7.35,2.05,3.53-.91,5.71-4.21,5.33-7.99h.01Z" fill="#0a0b0b"/><path d="M467.71,293.85h-1.25c-2.41-.31-4.69-1.19-6.32-3.14-2.66-3.18-3.1-7.61-.83-11.19,2.04-3.21,6.18-5.04,10.23-3.98,3.58.94,6.48,4.06,6.85,8.05.52,5.46-3.38,9.88-8.68,10.25h0ZM474.45,283.73c-.37-3.66-3.13-6.16-6.44-6.55s-6.71,1.56-7.82,4.88c-.91,2.74-.33,5.55,1.57,7.6,1.79,1.92,4.62,2.76,7.35,2.05,3.53-.91,5.71-4.21,5.33-7.99h.01Z" fill="#0a0b0b"/><path d="M301.47,293.87l-1.26-.06c-5.3-.22-9.18-4.56-8.84-10,.26-4.07,3.24-7.4,6.99-8.29,4.01-.95,8.16.59,10.22,4.21l-1.74.98c-2.09-4.13-8.03-4.71-11.3-1.57-2.92,2.8-3.02,7.49-.32,10.5,1.57,1.76,4.07,2.53,6.37,2.28s4.29-1.54,5.32-3.56l1.63,1.04c-1.43,2.74-4.22,4.04-7.07,4.47Z" fill="#0a0b0b"/><path d="M258.28,293.88l-1.5-.04c-2.66-.34-5.13-1.71-5.94-4.38.44-.5.97-.7,1.59-1.03.37.66.59,1.54,1.28,2.16,1.84,1.64,4.75,1.9,6.75.55,1.03-.69,1.33-1.69,1.18-2.8-.13-.95-.84-1.71-1.92-2.11l-5.18-1.95c-1.57-.59-2.69-1.85-2.91-3.3-.25-1.59.23-3.22,1.46-4.28,1.58-1.36,3.78-1.8,5.89-1.18,1.74.51,3.34,1.78,4.15,3.71-.58.39-1.02.66-1.71.83-.52-1.62-1.81-2.52-3.17-2.81-1.53-.33-3.22-.02-4.13,1.16-.57.73-.74,1.68-.47,2.51.18.57.7,1.31,1.46,1.6l3.48,1.32c1.41.53,3.04.97,4.03,2.16,1.47,1.76,1.29,4.4-.2,6.04-1.13,1.24-2.64,1.53-4.12,1.85h-.02Z" fill="#0a0b0b"/><path d="M114.34,293.88l-1.5-.04c-2.66-.34-5.13-1.71-5.94-4.38.44-.5.97-.7,1.59-1.03.37.66.59,1.54,1.28,2.16,1.84,1.64,4.75,1.9,6.75.55,1.03-.69,1.33-1.69,1.18-2.8-.13-.95-.84-1.71-1.92-2.11l-5.18-1.95c-1.57-.59-2.69-1.85-2.91-3.3-.25-1.59.23-3.22,1.46-4.28,1.58-1.36,3.78-1.8,5.89-1.18,1.74.51,3.34,1.78,4.15,3.71-.58.39-1.02.66-1.71.83-.52-1.62-1.81-2.52-3.17-2.81-1.53-.33-3.22-.02-4.13,1.16-.57.73-.74,1.68-.47,2.51.18.57.7,1.31,1.46,1.6l3.48,1.32c1.41.53,3.04.97,4.03,2.16,1.47,1.76,1.29,4.4-.2,6.04-1.13,1.24-2.64,1.53-4.12,1.85h-.02Z" fill="#0a0b0b"/><rect x="186.8" y="144.77" width="33.09" height="5.52" fill="#0a0b0b"/><path d="M367.45,293.42l-.05-14.73-6.35,10.32-6.25-10.27-.08,14.68h-1.92l.03-17.81c.85-.23,1.55-.22,2.3-.07l5.93,9.85,5.92-9.87c.81-.1,1.49-.15,2.36.09l.03,17.81h-1.92,0Z" fill="#0a0b0b"/><path d="M346.82,293.42l-.05-14.73-6.35,10.32-6.25-10.27-.08,14.68h-1.92l.03-17.81c.85-.23,1.55-.22,2.3-.07l5.93,9.85,5.92-9.87c.81-.1,1.49-.15,2.36.09l.03,17.81h-1.92,0Z" fill="#0a0b0b"/><path d="M66.36,293.42l-.05-14.73-6.35,10.32-6.25-10.27-.08,14.68h-1.92l.03-17.81c.85-.23,1.55-.22,2.3-.07l5.93,9.85,5.92-9.87c.81-.1,1.49-.15,2.36.09l.03,17.81h-1.92Z" fill="#0a0b0b"/><path d="M433.76,278c3.76,3.8,3.47,10.33-.53,13.63-1.1.91-2.56,1.81-4.12,1.8l-8.17-.02.04-17.89,7.05.03c2.34,0,4.15.86,5.73,2.45h0ZM434.4,283.37c-.36-3.16-2.79-5.94-6.01-5.96l-5.53-.03v14.39l5.64-.08c3.44-.05,6.43-3.65,5.9-8.32h0Z" fill="#0a0b0b"/><path d="M541.48,278c3.76,3.8,3.47,10.33-.53,13.63-1.1.91-2.56,1.81-4.12,1.8l-8.17-.02.04-17.89,7.05.03c2.34,0,4.15.86,5.73,2.45h0ZM542.12,283.37c-.36-3.16-2.79-5.94-6.01-5.96l-5.53-.03v14.39l5.64-.08c3.44-.05,6.43-3.65,5.9-8.32h0Z" fill="#0a0b0b"/><path d="M26.24,293.53l-4.06-7.02h-5.01v6.92h-1.93l.03-17.91,7.11.02c1.82,0,3.33.85,4.46,2.3,1.05,1.35,1.44,3.27.78,4.99-.56,1.44-1.81,2.86-3.56,3.34l4.36,7.26-2.19.11h0ZM23.05,284.51c1.88-.03,2.95-2.01,2.94-3.63s-1.34-3.4-3.1-3.43l-5.71-.09v7.23l5.88-.08h-.01Z" fill="#0a0b0b"/><path d="M241.2,293.53l-4.06-7.02h-5.01v6.92h-1.93l.03-17.91,7.11.02c1.82,0,3.33.85,4.46,2.3,1.05,1.35,1.44,3.27.78,4.99-.56,1.44-1.81,2.86-3.56,3.34l4.36,7.26-2.19.11h0ZM238.01,284.51c1.88-.03,2.95-2.01,2.94-3.63s-1.34-3.4-3.1-3.43l-5.71-.09v7.23l5.88-.08h0Z" fill="#0a0b0b"/><path d="M89.58,293.53l-4.06-7.02h-5.01v6.92h-1.93l.03-17.91,7.11.02c1.82,0,3.33.85,4.46,2.3,1.05,1.35,1.44,3.27.78,4.99-.56,1.44-1.81,2.86-3.56,3.34l4.36,7.26-2.19.11h.01ZM86.39,284.51c1.88-.03,2.95-2.01,2.94-3.63s-1.34-3.4-3.1-3.43l-5.71-.09v7.23l5.88-.08h-.01Z" fill="#0a0b0b"/><path d="M522.87,289.16l-8.37-.03-1.55,4.19c-.69.19-1.31.2-2.1.05l6.88-17.75c.45-.29,1.47-.28,1.93,0l6.83,17.78-2.01.07-1.62-4.32h.01ZM522.1,287.15l-3.41-9.05-3.45,9.12,6.85-.06h.01Z" fill="#0a0b0b"/><path d="M103.99,285.3h-7.89v6.47h8.61v1.68h-10.5v-17.95l10.26-.02c.42.46.37,1.26.2,1.89l-8.55.02v6.23h7.89v1.68h-.02Z" fill="#0a0b0b"/><path d="M276.25,285.3h-7.89v6.47h8.61v1.68h-10.5v-17.95l10.26-.02c.42.46.37,1.26.2,1.89l-8.55.02v6.23h7.89v1.68h-.02Z" fill="#0a0b0b"/><path d="M180.04,285.3h-7.89v6.47h8.61v1.68h-10.5v-17.95l10.26-.02c.42.46.37,1.26.2,1.89l-8.55.02v6.23h7.89v1.68h-.02Z" fill="#0a0b0b"/><path d="M417.07,285.3h-7.89v6.47h8.61v1.68h-10.5v-17.95l10.26-.02c.42.46.37,1.26.2,1.89l-8.55.02v6.23h7.89v1.68h-.02Z" fill="#0a0b0b"/><path d="M508.24,285.3h-7.89v6.47h8.61v1.68h-10.5v-17.95l10.26-.02c.42.46.37,1.26.2,1.89l-8.55.02v6.23h7.89v1.68h-.02Z" fill="#0a0b0b"/><path d="M165.67,275.81c.28-.58,1.64-.47,2.06-.13l-6.5,17.78-2.02-.07-6.58-17.75c.62-.3,1.26-.2,2.06-.11l5.52,15.21,5.46-14.92h0Z" fill="#0a0b0b"/><path d="M11.58,283.85c.14.59.11,1.08.04,1.69H3.74v7.89h-1.93l.03-17.93h10.15c.21.7.2,1.23.1,1.89H3.74v6.47h7.85-.01Z" fill="#0a0b0b"/><path d="M385.44,293.36c-.67.17-1.24.12-1.93.05v-16.02h-5.49v-1.92h12.66v1.92h-5.25v15.97h0Z" fill="#0a0b0b"/><path d="M451.9,293.36c-.67.17-1.24.12-1.93.05v-16.02h-5.49v-1.92h12.66v1.92h-5.25v15.97h0Z" fill="#0a0b0b"/><path d="M196.15,293.36c-.67.17-1.24.12-1.93.05v-16.02h-5.49v-1.92h12.66v1.92h-5.25v15.97h0Z" fill="#0a0b0b"/><path d="M399.36,293.36c-.67.17-1.24.12-1.93.05v-16.02h-5.49v-1.92h12.66v1.92h-5.25v15.97h0Z" fill="#0a0b0b"/><path d="M495.71,291.76c.16.58.12,1.09.04,1.7h-10.04v-17.71c.53-.42,1.26-.36,1.92-.22v16.24h8.08Z" fill="#0a0b0b"/><path d="M153.36,291.76c.16.58.12,1.09.04,1.7h-10.04v-17.71c.53-.42,1.26-.36,1.92-.22v16.24h8.08Z" fill="#0a0b0b"/><path d="M247.74,293.36c-.66.18-1.24.13-1.93.05v-17.65c.53-.42,1.27-.36,1.92-.22v17.83h0Z" fill="#0a0b0b"/><path d="M375.13,293.36c-.66.18-1.24.13-1.93.05v-17.65c.53-.42,1.27-.36,1.92-.22v17.83h0Z" fill="#0a0b0b"/><path d="M351.67,213.43c-1.43-2.41-3.03-4.35-4.73-6.44l-1.87-2.3c-1.16.39-1.8,1.36-2.66,2.12l-2.53,2.26-2.27,2.05-3.06,2.96.12,26.96c0,1.89.64,4.06,2.15,5.03,1.71,1.1,3.69,1.48,5.62,1.85l7.69,1.48c.07.25.06.58.02.84-1.07.27-2.05-.05-3.08-.14l-2.64-.23-2.64-.24-3.13-.23-3.58-.25-3.86-.23-10.96.04-3.92.2-3.12.24-3.12.23-2.88.24-2.66.23c-.97.08-1.99.48-2.87.08,0-.28-.02-.61.03-.7.07-.13.37-.19.6-.24l10.57-2.19c1.99-.41,4.13-2.07,4.13-4.61l.02-103.06c0-1.89-1.35-6.02-3.4-6.73l-3.41-1.19-13.07-2.36c-.03-.41-.06-.76,0-.96.11-.41.58,0,.8,0l5.3.19,9.66.03c6.25-.38,12.1-2.32,17.41-5.62,1.58-.02,2.99.48,4.25,1.51v88.69l19.67-17.55c3.26-2.91,5.98-6.1,8.17-9.82,2.66-5.01,3.74-11.24-1.29-14.37-2.33-1.45-5.01-2.34-7.79-2.71-.51-.07-.58-.48-.54-.81.07-.57.5-.33.93-.29l8.73.81,3.08.25,3.58.25,3.61.23h8.87l2.19-.2,12.99-1.32c.21-.02.59-.18.79-.07.18.1.2.53.12.8s-.35.3-.72.36c-7.71,1.26-16.02,6.35-22.45,10.92-6.87,4.89-13.02,10.33-19.27,15.95l-9.91,8.91,2.62,2.95c1.37,1.54,2.63,2.94,4.55,3.88,6.24,3.09,12.9,5.1,19.77,5.69.03,1.41.65,2.38,1.48,2.92,1.04.68,2.16.82,3.43.29l5.9,14.93c1.29,3.26,3.02,6.22,5.31,8.81,4.79,5.42,14.4,4.88,14.61,5.95.06.32,0,.7-.5.66-8.55-.78-21.37-2.22-28.71-5.88-2.06-1.03-4.08-2.06-5.34-4.03l-9.46-14.76-7.28-12.26h-.05Z" fill="#231f20"/><path d="M377.4,218.38c-.64.74-2.98.81-3.61-.31-.52-.93-.41-2.07.25-2.8s1.94-.93,2.92-.37c1.08.61,1.04,2.79.44,3.49h0Z" fill="#231f20"/><path d="M546.5,290.88c.74-.22,1.59.27,1.77.83.28.86-.05,1.73-.82,1.94s-1.65-.06-1.94-.87c-.26-.7.14-1.66.99-1.91h0Z" fill="#0a0b0b"/><path d="M280.68,290.88c.74-.22,1.59.27,1.77.83.28.86-.05,1.73-.82,1.94s-1.65-.06-1.94-.87c-.26-.7.14-1.66.99-1.91h0Z" fill="#0a0b0b"/><path d="M269.09,44.53l-.03-1.94c0-.26.08-.43.25-.46v1.94c.01.26-.08.43-.23.46h.01Z" fill="#adafb4"/><path d="M513.66,249.15l-3.23.24-3.13.23-2.88.24-2.86.24c-.91.08-1.86.42-2.68.06,0-.3,0-.6.04-.7.06-.13.37-.19.6-.24l10.57-2.19c1.99-.41,4.13-2.07,4.13-4.61l.02-103.06c0-1.89-1.34-6.01-3.4-6.73l-3.23-1.14c-4.42-1.17-8.86-1.8-13.27-2.41-.02-.45-.05-.73.01-.96.11-.41.58,0,.8,0l5.3.19,9.65.03c6.29-.35,12.07-2.38,17.44-5.58,1.43-.25,3.05.57,4.22,1.46v58.87c-1.33-.04-2.33.55-2.96,1.66-.59,1.04-.61,2.37,0,3.53.51.96,1.56,1.67,2.95,1.84l.07,50.87c0,1.71.61,3.34,1.54,4.52.71.91,1.81,1.26,2.87,1.49l10.66,2.28c.19.04.45.06.45.16l.03.71c-.98.37-2.05,0-3.12-.08l-2.65-.23-2.64-.24-3.13-.23-3.58-.25-3.86-.23-10.96.04-3.81.2.04.02Z" fill="#231f20"/><path d="M532.13,188.67c-.7.04-1.35.1-1.79-.33-1-.96-.95-2.66-.25-3.4.35-.37,1.05-.58,1.66-.6,1.4-.03,2.26.8,2.23,2.16-.02,1.1-.53,2.08-1.86,2.16h.01Z" fill="#231f20"/><path d="M592.6,292.67l-3.5-.21-3.57-.2-2.9-.18-6.09.07-4.44.17-3.6.24-3.12.24-2.88.24-2.63.24-3.1.24c-.33.03-.66.29-1.01.08-.21-.13-.4-.86-.04-.94l10.71-2.25c.98-.21,2.07-.52,2.85-1.28,1.02-1.01,1.84-2.76,1.84-4.47v-103.49c-.01-2.24-.72-4.37-1.58-6.18-.56-1.17-1.54-1.84-2.67-2.18l-4.08-1.22-11.07-1.89c-.48-.08-.75-.16-.75-.59,0-.4.48-.72.99-.62,1.28.25,2.53.17,3.82.25l2.9.19,7.8-.04c6.41-.41,12.4-2.27,17.85-5.69,1.64.04,2.95.69,4.32,1.54l.02,13.43,4.64-4.51c1.82-1.77,3.84-3.03,6.11-4.25,7.22-3.89,15.83-4.44,23.44-1.28,4.19,1.74,7.7,4.44,10.65,7.81,6.54,7.44,9.65,16.57,10.6,26.38.12,1.24.36,2.33.15,3.6-1.88.14-3.24,1.56-3.34,3.26-.1,1.82.98,3.5,2.91,3.72.29-.03.55.07.53.44-.62,11.49-3.69,21.96-11.6,30.44-4.81,5.16-11.08,8.52-18.18,8.93-8.39.49-15.06-2.1-21.34-7.5l-4.6-4.6.08,44.75c0,2.68,1.81,4.45,4.06,4.92l10.52,2.21.57.03c.18,0,.19.45.13.69.16.37-.15.62-.4.5-.72-.43-1.51-.21-2.21-.27l-2.9-.27-2.88-.25-3-.24h-.01ZM620.62,240.54c4.33-7.83,5.58-16.52,6.06-25.36l.05-10.94-.24-3.6-.27-2.82c-.85-8.85-3.66-19.54-10.42-25.54-3.82-3.39-9.05-4.31-13.98-2.81-3.3,1.01-6.16,2.89-8.7,5.18-1.05.94-2.09,1.7-2.88,2.89l-1.59,1.62-.02,60.36c4.12,5.1,10.04,10.17,16.79,10.5,6.98.51,11.94-3.62,15.2-9.5v.02Z" fill="#231f20"/><path d="M646.06,210.89c-.89,1.06-2.65,1.06-3.47.11-.88-1.02-.61-2.92.61-3.51.57-.28,1.63-.27,2.21,0,1.15.54,1.51,2.39.65,3.4h0Z" fill="#231f20"/><path d="M101.37,225.43c.34-2.21-1.08-4.22-3.42-4.23,1.21-10.04,8.67-18.82,18.78-20.55l5.53-.94c.71-.12,1.47.09,2.16-.3l6.65.12c5.67.59,11.03,1.82,16.62,3.72l-.13-23.79c-.02-2.93-.86-5.71-2.13-8.17-1.57-3.03-4.52-4.5-7.82-4.5-3.08,0-5.94.41-8.72,1.61-4.34,1.87-6.7,5.95-6.43,10.68l.24,4.23c.3,5.32-3.15,9.49-8.36,9.71-4.72.2-8.82-3.33-8.56-8.15.21-3.91,2.74-7.34,5.78-9.81,6.55-5.31,14.56-8.29,22.97-8.87l6.58.02c4.22.39,8.3,1.28,11.98,3.35,3.88,2.19,7.04,5.15,9.11,9.15,1.61,3.11,2.86,6.61,2.88,10.29l.19,51.29c0,1.76.83,3.52,2.16,4.31,3.42,2.03,7.32-2.06,9.96-4.69.11-.11.41.36.29.42-.08.04-.11.27-.23.39l-3.25,3.24c-4.97,4.96-13.08,9.2-20.09,6.89-3.83-1.27-6.32-4.54-6.37-8.54l-.09-8.13-19.23,14.1c-2.37,1.74-4.94,2.62-7.84,2.77-13.47.68-21.9-10.19-22.76-22.87,2,.1,3.26-.88,3.54-2.74h0ZM122.5,246.09c1.54,1.7,3.82,2.26,5.94,1.49l19.25-14.11v-29.57c-4.26-1.51-8.62-2.64-13.21-3.22l-6.63.02c-5.55.68-8.83,4.37-10.69,9.48-1.24,3.41-1.65,6.98-1.92,10.62-.54,7.29.6,14.91,4.18,21.27.85,1.5,1.73,2.83,3.09,4.01h0Z" fill="#231f20"/><path d="M98.14,226.85c-1.37.09-2.24-.69-2.3-2-.03-.66.05-1.32.49-1.78.35-.37,1.06-.58,1.66-.6,1.34-.03,2.07.69,2.2,1.93.14,1.33-.54,2.35-2.06,2.45h.01Z" fill="#231f20"/><path d="M413.49,225.43c.34-2.21-1.08-4.22-3.42-4.23,1.21-10.04,8.67-18.82,18.78-20.55l5.53-.94c.71-.12,1.47.09,2.16-.3l6.65.12c5.67.59,11.03,1.82,16.62,3.72l-.13-23.79c-.02-2.93-.86-5.71-2.13-8.17-1.57-3.03-4.52-4.5-7.82-4.5-3.08,0-5.94.41-8.72,1.61-4.34,1.87-6.7,5.95-6.43,10.68l.24,4.23c.3,5.32-3.15,9.49-8.36,9.71-4.72.2-8.82-3.33-8.56-8.15.21-3.91,2.74-7.34,5.78-9.81,6.55-5.31,14.56-8.29,22.97-8.87l6.58.02c4.22.39,8.3,1.28,11.98,3.35,3.88,2.19,7.04,5.15,9.11,9.15,1.61,3.11,2.86,6.61,2.88,10.29l.19,51.29c0,1.83.89,3.65,2.3,4.39,3.32,1.74,7.14-1.98,9.67-4.66.15-.16.4-.03.43.08s.02.34-.13.48l-3.34,3.37c-4.89,4.94-13.09,9.2-20.09,6.89-3.83-1.27-6.32-4.54-6.37-8.54l-.09-8.13-19.23,14.1c-2.37,1.74-4.94,2.62-7.84,2.77-13.47.68-21.9-10.19-22.76-22.87,2,.1,3.26-.88,3.54-2.74h.01ZM434.62,246.09c1.54,1.7,3.82,2.26,5.94,1.49l19.25-14.11v-29.57c-4.26-1.51-8.62-2.64-13.21-3.22l-6.63.02c-5.55.68-8.83,4.37-10.69,9.48-1.24,3.41-1.65,6.98-1.92,10.62-.54,7.29.6,14.91,4.18,21.27.85,1.5,1.73,2.83,3.09,4.01h0Z" fill="#231f20"/><path d="M410.26,226.85c-1.37.09-2.24-.69-2.3-2-.03-.66.05-1.32.49-1.78.35-.37,1.06-.58,1.66-.6,1.34-.03,2.07.69,2.2,1.93.14,1.33-.54,2.35-2.06,2.45h0Z" fill="#231f20"/><path d="M260.63,178.67c-2.45-7.87-9.49-10.83-17.46-10.62-8.81-.5-17.25,4.14-24,9.59l.05,64.14c0,1.52.79,3.14,1.75,4.04,1.02.96,2.45,1.28,3.76,1.55l9.37,1.9c.2.04.42.11.42.2l.03.71c-.83.36-1.76,0-2.68-.07l-2.86-.24-2.88-.23-2.88-.24-3.58-.25-3.86-.23h-10.8l-3.86.23-3.58.25-3.13.23-2.64.24-2.64.23c-1.85.16-3.57.56-3.1-.38.08-.17.35-.38.68-.44,3.85-.71,7.66-1.26,11.37-2.5,1.72-.58,2.85-2.01,3.19-3.75l.36-1.9-.05-60.01c0-1.86-.57-3.59-1.08-5.2-.56-1.79-1.94-2.78-3.69-3.33-4.89-1.54-9.92-2.22-15.02-2.96-.34-.05-.42-.51-.3-.73.12-.24.54-.48.96-.4,1.28.25,2.53.17,3.82.26l2.9.19,7.61-.03c6.47-.37,12.54-2.26,18.04-5.71,1.64.03,2.95.7,4.32,1.54l.02,11.97c7.46-6.33,16.46-9.82,26.19-10.52l7.28.03c7.35.59,13.32,2.41,19.04,7.11l2.5,2.54c3.99,4.46,5.78,10.09,5.82,16.06l.1,15.16c-2.07.06-3.59,1.62-3.62,3.52s1.51,3.57,3.57,3.59l.15,28.24c.01,2.55,1.95,4.16,4.1,4.61l10.54,2.17.48.14c.14.04.24.49.14.79-.77.41-1.76.03-2.65-.05l-2.87-.24-2.88-.24-3.12-.23-3.12-.24-3.92-.2-10.96-.04-3.86.23-3.58.25-3.13.23-2.64.24-2.65.23c-2.1.18-3.44.68-3.11-.66l7.73-1.51c1.95-.38,3.9-.73,5.64-1.87,1.41-.92,2.19-3.13,2.18-5.04l-.05-51c0-3.97-.74-7.69-1.88-11.35h.02Z" fill="#231f20"/><path d="M281.92,209.65c.26.61.2,1.66-.11,2.26-.5.95-1.52,1.11-2.45.91s-1.61-.96-1.64-1.99c-.03-.97.36-2.02,1.44-2.23,1.14-.23,2.28-.1,2.77,1.05h0Z" fill="#231f20"/><path d="M0,164.66v-7.2c.64-7.65,3.79-14.71,8.88-20.48l4.09-4.09c6.4-5.76,14.34-9.17,22.97-9.84h6.6c8.13.67,15.33,4.27,21.43,4.89,4,.41,7.49-1.99,9.53-5.3l1.69,1.1c-1.18,3.91-1.75,7.89-1.77,12l-.04,8.29c0,.95.34,1.89.19,2.9-.12.8.24,4.48.41,6.72l.24,3.11.26,3.11,1.42,15.08c-.46.06-.85.08-1.32-.02-2.65-13.36-6.97-31.55-15.66-41.93l-4.06-4.06c-3.51-2.97-7.72-4.68-12.31-5.17h-6.59c-7.42.6-14.27,3.53-19.68,8.56-4.68,4.35-7.19,9.63-7.17,16.03.03,10.66,5.04,18.87,14.8,23.25,5.7,2.56,11.37,4.6,17.27,6.72s11.43,3.88,16.91,6.61l7.7,3.83c1.96.97,3.83,2.18,5.38,3.72l3.83,3.82c3.9,4.64,6.08,10.29,6.75,16.28-1.18-.02-2.07.37-2.7,1.21-.84,1.13-1.03,2.52-.49,3.77.51,1.19,1.65,2,3.16,2.03-.77,8.44-4.46,16-10.36,22-6.25,6.36-14.35,10.18-23.29,10.73h-6.56c-2.98-.26-5.85-.55-8.6-1.72l-9.95-4.2c-2.89-1.22-5.77-2.49-8.93-2.77-5.08-.45-8.76,3.87-10.62,8.31l-1.67-.93c1.01-3.65,1.64-7.2,1.65-10.92l.04-10.45-.23-3.85-.25-3.58-.23-3.11-.25-3.34-1.4-15.65c-.02-.26,1.02-.34,1.26-.11,2.38,12.01,5.91,23.66,12.54,34.1,6.29,9.88,14.39,16.65,26.42,17.49h7.45c8.23-.67,15.7-4.1,21.23-10.17,3.95-4.35,5.87-9.71,5.53-15.63-.27-4.64-2.14-8.81-5.17-12.34l-2.98-2.99c-3.55-3.02-7.42-5.19-11.71-7.03-7.7-3.32-15.41-6.03-23.34-8.78-6.04-2.1-11.79-4.26-17.61-6.85C4.89,183.45.81,174.86,0,164.66h0Z" fill="#231f20"/><path d="M79.95,217.62c-.69-.76-.59-2.45,0-3.02.97-.95,2.4-.93,3.21-.16.86.82,1.02,2.38,0,3.34-.71.67-2.42.73-3.22-.15h.01Z" fill="#231f20"/><path d="M262.36,38.99l1.19-.21h5.75l.02,3.35c-.09.79-.16,1.59-.23,2.4-.47,8.19-3.53,15.91-8.81,22.65,8.23,1.77,14.98,4.89,21,10.71.71.53,1.42,1.02,1.8,1.88-2.79,4.11-6.43,7.31-10.57,9.93-3.74,2.37-7.89,3.43-12.32,3.81l-2.64.23-4.54.19c-1.04.04-1.98.02-2.89.21l-1.9-.2-2.32-.11c-4.98-.85-9.55-2.67-13.72-5.44-4.92.95-9.28,2.64-13.65,4.9-4.12,2.22-7.89,4.71-11.76,7.56,4.87,3.57,9.65,6.63,14.87,9.49,10.81-5.42,22.82-10.29,34.96-10.9,6.68-.29,13.06,1.28,16.02,7.52,2.81,5.92,1.73,14.03-3.52,18.13-2.32,1.81-4.96,2.45-7.68,2.95-.42,0-.84,0-1.21.22l-6.36-.13-8.8-1.56c-8.21-2.06-15.95-5.19-23.45-9.15-6.4,3.62-12.49,7.5-18.23,12.04-5.84-4.55-11.96-8.53-18.31-12.02-6.48,3.43-12.97,6.07-19.83,8.16-4.07,1.13-7.95,2.07-12.02,2.41l-1.19.21-5.98-.04-2.04-.34c-6.28-1.06-10.94-6.09-11.19-12.33-.06-1.04-.12-2.07-.18-3.1.28-1.7.56-3.46,1.32-5.11,3.63-7.84,11.49-8.4,19.53-7.62,11.22,1.45,21.53,5.64,31.61,10.65,5.2-2.84,9.98-5.93,14.85-9.42-3.27-2.53-6.47-4.58-9.93-6.57-4.85-2.81-9.91-4.79-15.43-5.91-4.31,2.78-8.94,4.59-14,5.41l-2.56.1c-.79.19-1.61.19-2.4,0l-5.64-.12-3.35-.26c-9.25-.2-17.66-6.34-23.02-13.73,6.04-6.77,13.93-10.95,22.87-12.6-5.01-6.43-7.97-13.52-8.77-21.29l-.09-5.23c-.19-.62-.21-1.29-.06-1.93l5.83.03,1.44.18c7.71.9,14.9,3.73,21.16,8.81,1.32-7.17,4.16-13.49,8.72-18.96l4.71-4.93c5.01,4.51,8.97,9.91,11.3,16.2,5.18,13.93,2.5,29.31-7.06,40.53l5.48,5.43c7.11-8.21,11.3-18.4,11.81-29.06.21-1.62.22-3.41,0-5.03-.44-10.94-5.01-21.18-12.15-29.56l-1.56-1.84-2.14-2.29L203.4,0l5.72,5.65,1.88,1.99,10.59,10.62-3.25,3.65c-16.55,18.59-17.01,45.05-.77,64.15l5.48-5.46c-13.02-15.26-12.81-37.72.38-52.8l3.88-3.99,3.94,4.13c4.99,5.55,8.06,12.31,9.51,19.81,6.33-5.06,13.73-8.13,21.6-8.77h0Z" fill="#231f20"/><path d="M168.76,84.69c-.63-.14-1.29-.19-1.97-.16.12.57-.03,1.01-.47,1.31-11.96,4.95-24.88,2.68-34.95-5.18l4.3-2.92c1.34-.32,2.91-1.16,3.9-2.03,9.7-4.25,20.72-3.75,29.99,1.4l5.43,3.62c-2.15,1.54-4.03,2.94-6.23,3.97h0Z" fill="#fff"/><path d="M182.11,36.48c7.33,11.44,6.88,27.85-2.03,38.75-.33.4-.72.63-1.16.22l-.05-.22c0-.57-.27-.87-.77-.89-6.43-8.78-8.2-20.42-4.7-30.74.61-.68.82-1.3,1-2.18,0-.07.03-.19-.03-.3.62-.6,1.05-1.37,1.29-2.3.85-.98,1.4-1.95,1.88-3.17-.09-.06-.08-.19-.05-.24.57-.61,1-.76,1.3-.45.92-.81,2.13-.93,2.29.5l1.03,1.02h0Z" fill="#fff"/><path d="M152.56,47.11c.87.49,1.62,1.04,2.27,1.65.33-.24.66-.29,1.01-.16l.5.22c.66.79,1.34,1.52,2.33,1.91.33-.27.83-.1,1.49.51.46.1.86.46,1.2.76.03.23.19.37.48.43,1.39.92,2.58,2.14,3.77,3.43.02,3.01.61,5.83,1.63,8.51.22.42-.75.16-.7.16.55-.08.81.19.72.75.56.84,1.49,2.44,1.05,3.43-.08.17-.29.28-.47.33.07,1.2-.94.78-1.72.4-.55-.32-1.01-.55-1.38-.69-.72-.14-1.43-.37-2.12-.69-.29-.52-.86-.69-1.71-.49l-.22-.03c-.2-.25-.45-.33-.75-.22h-.25c-.27-.04-.42-.09-.18-.22-1.7-.29-3.4-.45-5.11-.48-6-5.61-9.71-13.15-10.62-21.58,2.92.28,5.96.93,8.8,2.07h-.02Z" fill="#fff"/><path d="M204.29,9.78l.13.47c.77.41,1.7,1.19.66,1.79.57-.13,1.12-.11,1.66.05l6.44,6.35c-4.86,5.12-7.89,11.42-9.3,18.2-.21.39-.31.89-.3,1.5.04.26.02.61-.02.88l-.28.09c-.07-.48-.22-.9-.45-1.27,0-.06,0-.17-.03-.22.11-.22.04-.47-.2-.75-1.13-5.59-3.47-10.84-6.78-15.48-.04-.37-.27-.74-.68-1.1.63-.52.17-1.86-.51-2.33.7-.77.8-1.02.3-.77.21-.19.5-.56.71-.76.8-.41,1.52-.94,1.44-1.39l.72-.79.39-.25c.66.16,1.47-.53,1.54-1.17.62-.33.98-.74,1.08-1.24.72-.36,1.15-.88,1.3-1.56.32-.31.58-1.03,1.25-1.11.44-.05.81.56.92.87h0Z" fill="#fff"/><path d="M205,80.77c-.84-2.7,2.22.91,1.59.99-.57.07-1.32-.5-1.59-.99Z" fill="#fff"/><path d="M205,80.77c.34.51.84.95,1.48.87.38.47.71.77.97.89.02.16.08.52.22.57.09.32.28.5.53.72l1.7,2.41c.03.35-.1.64-.41.87.96-.25,1.44.8,1.45,1.65,1.87.98,0,1.7-1.21,1.91-.29-.55-.55-.64-.8-.27.22.53.14,1.01-.25,1.46l-3.17,2.14-.49.04c-.66.74-1.18.9-1.56.47-.13.57-.39.85-.88.42-.25-.1-.51-.4-.7-.53-.16-.46-.31-.61-1.02-.68l-1.12-.75-.02-.37-2.13-1.17c-.45-.36-.23-.61.17-.92-.75.04-1.31-.2-1.66-.71-1.56-.3-1.06-1.17-.05-1.88,1.09-1.1,1.82-2.31,2.18-3.62l.56-.92c.54-.15,1.05-.91,1.37-1.79.04-.11,0-.24-.03-.37l1.79-3.38c.19-.32.58-.43,1.2-.31,1.36-2.22,1.84,1.04,1.81,2.42-.2.29-.17.56.07.82h0Z" fill="#fff"/><path d="M167.23,64.38c.98,2.6,2.37,5.05,4.15,7.3l3.99,5.04-5.92-4.78c-1.43-1.16-2.93-2.19-4.55-2.82-.17-.12-.23-.24-.17-.36,0-.26.17-.23.3-.18l.4.18c.67.65,1.38.73,2.21.57-.4-.11-.65-.59-.44-.73.12-.08.46.04.62,0,.24-.06.47-2.14-.87-3.22.04-.19.14-.52.05-.59-.1-.09-.33-.12-.61-.19.22-.23.51-.19.85-.22h-.01Z" fill="#f5f9fc"/><path d="M197.61,91.44l-3.67-1.23,4.32-5.9c.49.88.05,2.08-.78,2.41l-.9,1.04c-.06.07-.04.37-.08.45-.06.1-1.12.35-1.06.58.04.16.25.52.45.6-.02-.37.39-.74.48-.6.25.42.07.83.24.97.48.36,1.11.16,1.58.35.17.07.23.52.09.61-.35.26-.54.49-.68.71h0Z" fill="#f6fafb"/><path d="M209.91,86.24l2.89,3.95c-1.51.38-2.91.86-4.11,1.67-.16-.16-.22-.31-.2-.41.02-.09.3-.3.28-.39-.05-.21-.46-.58-.35-.82s.49-.42.67-.53c.35-.21.72.1.79.65.53-.36.98-.51,1.54-.6-.22-.13-.21-.49-.24-.49l-.7-.06c-.11-.52.14-1.2-.23-1.71-.62.09-1.29.22-1.68-.19.63-.54.75-.9,1.32-1.08h.02Z" fill="#f4f6f9"/><path d="M197.81,14.25l4.32-4.23c.13.29.22.64.16.85-.16.59-2.28.74-.72,1.22-.19-.12-.3-.24-.27-.45.54.04.78.03,1.22.34l-2.46,1.02.09,1.3-.54-.47c.11.1-.87.67-1.25,1.34-.29-.33-.12-.44-.11-.54.02-.26-.17-.41-.44-.38Z" fill="#f2f4f6"/><path d="M195.83,21.39l-2.27-2.85c.33-.57.93-.95,1.38-1.35.18-.08.42-.2.57.08-.5-.09-.55.56-.39.62l.96.35c-1.12,1.01,1.07,2.02-.65,2.15.27.37.59.54,1.15.85-.27.38-.49.15-.73.14h-.02Z" fill="#f2f3f4"/><path d="M174.37,41.13c.8-1.94,1.8-3.85,3.16-5.47l-.37,2.12c0,.08.33,1.79-.3,1.46-.16-.08-.04-.35-.07-.51l-.06-.36c-.02-.1-.04-.39-.26-.21-.4.33.39,1.34-.56.77-.08-.05-.2.18-.15.3.07.19.55.1.67.24-.21.42-.46.11-.62.16-.57.2-.05,1.25-1.43,1.51h-.01Z" fill="#f3f6f9"/><path d="M182.11,36.48c-.67-.2-1.57-1.18-1.75-.9l.47-.75c-.82-.14-1.5.17-2.22.97-.24-.35-.25-.61-.33-.89-.24.45-.52.54-.8.5l1.92-2.75,1.86,2.52c.31.41.6.79.84,1.29h.01Z" fill="#f4f9f8"/><path d="M207.46,82.53l-.61,1.05c-.04-.19-.13-.49-.25-.49-.09,0-.41.13-.38-.25.02-.23.67-.23,1.01-.29-.84-.56-1.97-.76-2.23-1.79.4.32.93.81,1.59.56l-1.29-.91c.02-.5-.51-.35-.3.35-.09.03-.33-.04-.33-.17,0-.11.1-.33-.15-.43-.39-1.28.59-2.68-.58-3.19-.09.4-.3.9-.77,1.04-.32.1-.82-.11-1.24-.18l1.54-3.18c1.11,2.74,2.51,5.43,3.99,7.86v.02Z" fill="#f7f9fa"/><path d="M160.15,51.24c-.34-.08-.64-.25-.94-.6-.23.23-.05.43-.1.52-.29.52-2-.9-2.2-.77-.07.05.19.34-.44.41-.25-.28.17-.66.6-.8-.47-.27-.89-.59-.75-1.18,1.36.61,2.71,1.4,3.82,2.42h0Z" fill="#f3f6f8"/><path d="M206.74,12.09l-.18.48c-.04.16-.41-.32-.52-.27l-.69.33-.83-.28c-.21-.07-.21-.41-.1-.51.2-.18.52-.33.87-.46-.23-.25-.46-.69-.8-.75l-.56-.1c-.13-.02-.33-.41-.21-.47l.58-.28c1.03.54,1.66,1.54,2.45,2.31h0Z" fill="#f3f6f9"/><path d="M168.76,84.69l-2.44,1.15c-.02-.45.14-.91-.29-1.35.36-.4,1.15-.78,1.71-.23.16-.25.48-.39.59-.3.19.16.3.42.43.73Z" fill="#f3f3f5"/><path d="M205.53,94l-2.02,1.49c-.47.34-.65-.45-.91-.55.45-.13.36-.63.52-.85.17-.24.54-.33.67-.3.17.04.04.68.21.68.4,0,.6-.42.82-.61.17-.14.45-.18.7.14h0Z" fill="#f1f4f6"/><path d="M155.83,48.59c-.21.33-.56.51-.92.62-.47.15-.57-.47-.83-.68-.63-.51-1.25-.73-1.53-1.43,1.1.44,2.32.75,3.27,1.49h0Z" fill="#f3f6f8"/><path d="M135.67,77.74l3.9-2.03c.51.59-.89.55-.91.82l-.03.51c-.59.03-1.27.18-1.74.46.22.1.42.19.45.26s-.26.3-.34.29l-1.33-.31h0Z" fill="#f2f5f7"/><path d="M198.8,83.39l1.34-2.17c.23.16.47.15.73.08-.04.41-.28.58-.75.6-.11.17.04.46.37.61l-1.05.83c-.1.08-.22.2-.3.22-.1.02-.24-.07-.34-.18h0Z" fill="#eef2f4"/><path d="M159.67,67.34c-1.54-.3-3.1-.65-4.8-.47-.21.02-.43-.19-.48-.25,1.74-.04,3.44-.08,5.23.3.11.02.12.37.06.41h0Z" fill="#f2f6f8"/><path d="M164.72,68.76c.11.03.2.21.17.36l-4-1.55c.44-.71,1.64-.44,2.14.03-.32.46.09.78.12.7.04-.09.13-.38.32-.55.41.37.71.85,1.24,1.01h0Z" fill="#f2f6f8"/><path d="M199.75,92.97l-2.15-1.53,2.91,1.16c-.32.34-.57.26-.76.38h0Z" fill="#eef2f4"/><path d="M195.64,16.43l1.44-1.39c.2.11.31.28.27.4-.07.21-.34.38-.66.49-.27.2-.09.68-.34,1.12-.33-.11-.46-.39-.71-.61h0Z" fill="#e9ebec"/><path d="M173.4,43.6c.26-.76.47-1.57,1-2.18.12.72.06,1.43-.14,2.13-.39-.55-.63-.06-.86.05Z" fill="#f3f6f9"/><path d="M203.57,39.02c-.07.41-.16.82-.37,1.23l-.36-2.41c.58.08.36.75.74,1.18h-.01Z" fill="#ecf1f5"/><path d="M178.86,75.23c-.42-.16-.55-.59-.77-.89.2-.22.48-.35.62-.28.17.09.53.41.64.58s-.44.5-.5.59h.01Z" fill="#edf0f2"/><path d="M132.79,115.51c-.13-.02-.23-.19-.22-.46l.04-2.64c.13.03.22.2.21.46l-.03,2.65h0Z" fill="#808990"/><path d="M261.41,128.03l-1.21.22c.28-.36.8-.31,1.21-.22Z" fill="#b0b1b3"/><path d="M153.2,128.01c-.28.35-.79.22-1.19.21.27-.42.82-.18,1.19-.21Z" fill="#bebfc1"/><path d="M164.75,119.85c-6.39,1.87-14.94,3.96-21.13,2.14-4.66-1.37-6.01-5.97-5.14-10.65,1.21-6.49,8.15-6.77,14.27-6.16,6.19.78,12.07,2.34,17.82,4.74l11.61,4.84-17.42,5.09h-.01Z" fill="#fff"/><path d="M263.09,122.02c-6.51,1.84-15.07-.43-21.69-2.36l-16.84-4.9,10.05-4.21c5.47-2.29,10.99-3.97,16.84-5,5.87-.88,13.84-1.6,16.32,4.07.85,1.95.9,4.04.63,6.14-.38,3.01-2.34,5.41-5.3,6.25h-.01Z" fill="#fff"/><path d="M213.93,113.02c.55.36.79.7.72,1.01-1.47.65-2.72,1.52-3.75,2.6-.54.04-.92.2-1.43.47-.49-.09-.94.34-1.35,1.31-.14.09-.37.15-.47.27-.62.07-1.02.32-1.21.75-.09.03-.2.14-.23.19-.48.02-.63.16-.47.42l-2.4,1.53-6.75-4.4c-.1-.48-.81-1.13-1.33-1.15-.66-.55-1.36-1.05-2.23-1.2-.06-.09-.16-.23-.21-.25-.21-.67.2-1.14,1.23-1.41.12-.72.65-1.2,1.58-1.44-.18-.4,0-.59.3-.88l7.48-4.92,10.54,7.11h-.02Z" fill="#fff"/><path d="M195.91,110.84c.03.34.08.58.3.94-.33.44-.86.71-1.47.7-.16.32-.15.63-.18,1-.73.26-1.39.49-1.76,1.09-.43-.1-.92-.24-1.38-.8l4.5-2.93h-.01Z" fill="#f5f8f8"/><path d="M208.1,118.41c.07-.63.09-1.21.44-1.77.41-.08.82-.06,1.27.02l.42-.96c.22.39.19.66.66.92.11-.52-.15-.71-.38-1.11.44.06.72.21.98.11.28-.12.57-.6.74-.94,1.07.24,2.22-.69,2.22-.71.04-.09-.04-.3-.18-.45-.07-.07-.25.14-.33.18-.2-.05-.21-.6-.02-.68.37.25.9.28,1.23.85l-7.05,4.54Z" fill="#f2f4f6"/><path d="M196.57,117.17l-3.56-2.35c.85-.24,1.69.3,2.22.93l.35-.35c.22-.22.49,1.3,1.71,1.43l-.73.33h0Z" fill="#f5f8f8"/><path d="M206.2,119.62c-.11.19-.29.3-.47.42-.3-.21-.72-.25-.93-.56.25-.27.52-.41.77-.32.2.07.44.29.63.47h0Z" fill="#f2f3f4"/><path d="M207.64,118.68c-.33.43-.73.61-1.21.75-.08.03-.32-.11-.24-.29.3-.64,1.02-.83,1.45-.46h0Z" fill="#f2f3f4"/><path d="M180.07,75.23c-.2.24-.22.84-.65.89-.23-.09-.47-.48-.51-.67.34-.2.73-.27,1.16-.22h0Z" fill="#edf0f2"/><path d="M201.9,94.41l-1.02-.68c.27-.23.55-.1.76-.08.35.03.63.35.26.77h0Z" fill="#f1f4f6"/><path d="M203.89,36.63c-.1.48.08,1.07-.3,1.5l-.25-1.75.55.25Z" fill="#ecf1f5"/><path d="M208.21,83.82c-.23-.09-.46-.15-.75.06-.11-.41.08-.57.22-.78.33.12.39.52.53.72Z" fill="#f7f9fa"/><path d="M202.8,37.62c-.18-.23-.14-.5-.2-.75.17.05.29.15.39.23.26.21.11.55-.2.53h0Z" fill="#ecf1f5"/><path d="M161.83,52.43l-1.12.42c-.26.09-.34-.09-.44-.15-.83-.49.59-.21,1.08-.7,0,0,.48.43.48.43Z" fill="#e9ebee"/><path d="M160.67,67.54c-.26-.03-.52-.09-.75-.22.09-.16.24-.24.37-.26.3-.05.46.23.38.48Z" fill="#f2f6f8"/><path d="M250.12,94.14c-.61.13-1.42.12-1.9-.2.64.02,1.39-.17,1.9.2Z" fill="#b9bdc2"/><path d="M263.56,38.78c-.27.44-.81.17-1.19.21.28-.34.79-.21,1.19-.21Z" fill="#7e8b90"/><path d="M268.09,76.13c.54.29.49.66.3,1.2.39-.18.77-.32,1.16-.43.43.4,1.52.77,2.87,1.69.4.84.99,1.21,1.87,1.41.06.08.2.22.3.25.42.21.29.63-.39,1.25-7.9,5.89-17.99,8.28-27.63,6.22-.56-.2-1-.45-1.32-.74l-2.11-.16c-2.19-.57-4.23-1.6-6.22-2.7-.22-.33-.56-.57-1.02-.7-1.21-.52-2.22-1.48-3.31-2.21-.31-.4-.15-.87.48-1.41,10.05-7.68,23.63-9.17,35.03-3.67h0Z" fill="#fff"/><path d="M229.61,35.99c6.93,10.11,7.34,23.86,1.39,34.71-.3.35-.52.51-.97.39-.04,1.81-.94,1.91-2.51,1.91-.66,1.42-1.53,1.19-2.62-.69,0-.87-.16-1.15-.43-.85l-.92-1c-5.99-11.24-5.3-25.17,2.16-35.51.65-.48,1.37-.59,1.5.4,1.08-.54,1.68-.34,2.41.64h-.01Z" fill="#fff"/><path d="M261.22,52.95c-.4.59-.77,1.44-.8,1.92l-.22.67-.71.34c-.01.71-.15,1.38-.42,2.04-1.6,3.35-4.02,6.26-6.83,8.84l-3,.17c-1.1-.08-2.21.09-3.17.66h-.21c-.63.2-1.08.2-1.36-.03l-.13.13c-.12.19-.28.39-.48.59l-1.36.53c-.88.14-1.71.34-2.49.61-.62,1.19-2.08,2.09-1.72.01l-.33-.81c.35-.4.45-.85.31-1.35,1.82-3.6,2.82-7.49,3.01-11.59,5.84-6.14,13.4-9.84,21.75-10.67-.41,2.8-.87,5.43-1.82,7.93h-.02Z" fill="#fff"/><path d="M242.52,68.81c-2.02.78-3.87,2.06-5.63,3.49l-5.47,4.48c.64-1.45,1.79-2.27,2.63-3.47,1.65-1.9,3.13-3.86,4.23-6.03.29.11.49.3.51.47.05.3-.09.59-.42.85.52.51.54,1.16.23,1.78.27.15.4-.03.49-.04.27-.03.21-.45.28-.58.27-.52.33-.79,0-1.2.44-.1.56.22.66.3.11.08.33-.19.52-.19.34,0,.99.69,1.06,0,.3-.05.59.06.9.16v-.02Z" fill="#f6fafb"/><path d="M230.99,70.7c-1.04,1.9-2.22,3.68-3.66,5.56l-3.79-5.81c.41,0,.7.25.97.66.15-.19.26-.35.37-.37.24-.06.39.15.42.41.05.45-.11.83-.27,1.15.2.4.83.49,1.39.57-.25.27-.36.44-.38.69.76-.05.94-.41,1.01-1.01l1.62-.09c.36-.02.9-.2,1-.54s-.12-.82-.47-1.4l1.81.18h-.02Z" fill="#f6f9fb"/><path d="M229.61,35.99c-.37-.54-1.57-.6-1.92-.3-.39.33-2.96.1-1.27-.28.38.17.52-.28.11-.39-.23.05-.63.2-.83-.06l1.67-2.31,2.24,3.35h0Z" fill="#f3f7f8"/><path d="M269.56,76.9c-.1.43-.45.71-.76.85-.45.19-.8,0-1.12-.22.51-.44.29-.98.41-1.39.47.23,1.06.4,1.46.77h.01Z" fill="#f1f3f4"/><path d="M246.57,87.72l-3.43-.9c.24-.38.89.06,1.29-.02.52-.11,1.01-.51,1.63.06-.18.07-.38.09-.53.41.55-.04.83.14,1.03.46h0Z" fill="#eff3f5"/><path d="M274.3,80c-.17.13-.35.21-.57.55-.41-.82-1.62-.69-1.3-1.96.64.43,1.38.79,1.87,1.41Z" fill="#eaedef"/><path d="M260.2,55.55l-1.14,2.37-.42-.2c-.16-.07-.14-.47-.01-.44l.57.12c-.04-.45.11-.99-.23-1.55-.25.53-.18.95-.69,1.19.04-.93.65-1.33,1.33-1.86.17.18.35.31.59.37h0Z" fill="#f2f4f6"/><path d="M249.23,66.93l-3.17.66c.75-.9,2.08-1.07,3.17-.66Z" fill="#f2f4f6"/><path d="M261.22,52.95c-.24.64-.27,1.41-.8,1.92-.77,0,.35-.89.13-1.09l-.48-.45c.58-.06.78-.2,1.15-.38Z" fill="#f2f4f6"/><path d="M232.59,81.21l-.79-.53c.35-.44.9-.6,1.26-.88l-.11.5c-.06.14.34.24.62.32-.39.14-.81.19-.99.59h.01Z" fill="#e5edef"/><path d="M274.21,81.5l.39-1.25c.21.06.43.1.72.35-.25.47-.75.63-1.11.9h0Z" fill="#eaedef"/><path d="M245.85,67.57l-1.97.7s-.25-.28-.19-.38c.09-.14.54-.2.67-.21l-.11-.14c-.14.01-.33.08-.62-.1.43-.25.86-.51,1.48-.3-.23.23-.51.21-.75.27l.12.13,1.36.02h.01Z" fill="#f2f4f6"/><path d="M236.92,84.12c-.36-.2-.76-.36-1.02-.7l.74.12c.22.04.34.32.28.58Z" fill="#eff1f3"/><path d="M236.71,82.61c-.05.75-.21.21-.87.12-.12-.02-.13-.35-.02-.4.08-.04.26.07.49-.34l.4.63h0Z" fill="#eff1f3"/></svg>