<?xml version="1.0" encoding="UTF-8"?><svg id="Layer_1" xmlns="http://www.w3.org/2000/svg" viewBox="0 0 570.46 100.81"><polygon points="0 100.08 0 27.45 25.72 40.32 31.33 43.15 31.33 100.26 0 100.08" fill="#231f20"/><polygon points="71.6 100.22 38.82 100.27 38.82 17.82 71.6 0 71.6 100.22" fill="#231f20"/><path d="M250.5,54.64c-5.29,5.79-12.5,8.56-20.25,8.53-7.09-.03-13.68-2.42-18.76-7.3-5.26-5.04-7.98-11.66-7.83-18.97.14-6.91,2.94-13.1,7.93-17.86,5.07-4.83,11.63-7.16,18.66-7.2,7.76-.05,14.96,2.78,20.21,8.47,4.39,4.75,6.68,10.69,6.67,17.19s-2.23,12.33-6.63,17.14ZM246.9,43.77c1.55-3.94,1.58-8.3.11-12.26-1.84-4.96-6.11-8.64-11.2-9.93-8.53-2.17-17.91.74-21.61,8.87-1.95,4.29-2,9.18-.24,13.55,1.85,4.59,5.74,7.91,10.47,9.28,8.87,2.57,19.01-.68,22.48-9.51h0Z" fill="#231f20"/><polygon points="372.3 41.05 347.32 41.04 347.31 53.62 377.19 53.63 377.19 62.11 338.53 62.11 338.53 12.89 376.5 12.89 376.5 21.37 347.32 21.37 347.32 32.56 372.3 32.55 372.3 41.05" fill="#231f20"/><polygon points="425.67 62.1 393.99 62.11 393.98 13.36 402.77 4.64 402.78 53.32 425.67 53.32 425.67 62.1" fill="#231f20"/><polygon points="318.94 62.06 311.32 62.12 280.87 23.24 280.86 62.11 272.46 62.09 272.47 12.88 283.36 12.91 310.51 47.48 310.56 12.83 318.94 21.15 318.94 62.06" fill="#231f20"/><path d="M244.43,100.57v.23h-3.14l.14-.23c0-.17.06-.29.17-.4s2.83-.16,2.82.4h0Z" fill="#231f20"/><path d="M347.77,100.58v.22h-2.6l-.08-.23c.14-.4.57-.54,1.29-.39.72-.14,1.18,0,1.38.4h0Z" fill="#231f20"/><path d="M372.38,100.39l-4.53-5.7-3.92-.03-.02,5.68-2.9-.04v-16.02l9.35.06c3.22.02,5.49,2.46,5.13,5.69-.18,2.28-1.98,3.96-4.41,4.25l4.76,6-3.46.1h0ZM370.03,91.8c1.56-.01,2.57-.92,2.57-2.29,0-1.23-.87-2.29-2.27-2.3l-6.42-.04v4.68l6.11-.05h.01Z" fill="#231f20"/><path d="M211.81,100.31c-.86.12-1.62.1-2.51.02l-9.86-12.58-.03,12.6h-2.7v-16.06h3.53l8.82,11.22.05-11.22h2.7v16.03h0Z" fill="#231f20"/><path d="M296.36,100.27c-.89.18-1.64.11-2.56.07l-9.92-12.62-.02,12.58-2.69.03v-16.02l3.55-.02,8.8,11.18.05-11.19,2.78.03v15.95h.01Z" fill="#231f20"/><polygon points="152.45 93.45 144.28 93.47 144.25 97.55 154.04 97.57 154.04 100.37 141.35 100.37 141.35 84.28 153.81 84.29 153.84 87.07 144.28 87.07 144.27 90.67 152.45 90.67 152.45 93.45" fill="#231f20"/><polygon points="134.27 100.32 131.28 100.34 131.26 93.46 122.37 93.46 122.35 100.33 119.37 100.34 119.37 84.29 122.34 84.29 122.37 90.46 131.26 90.46 131.26 84.32 134.26 84.29 134.27 100.32" fill="#231f20"/><polygon points="230 93.45 221.9 93.47 221.9 97.56 231.55 97.56 231.59 100.37 219.01 100.37 219 84.29 231.39 84.27 231.39 87.07 221.9 87.07 221.9 90.66 229.99 90.67 230 93.45" fill="#231f20"/><path d="M392.26,97l-8.6-.03-1.34,3.36c-1.14.08-2.18.12-3.22-.04l6.75-15.98h4.18l6.74,15.98-3.22.05-1.29-3.34h0ZM391.05,94.19l-3.11-7.58-3.13,7.65,6.24-.07Z" fill="#231f20"/><path d="M313.8,96.99l-8.48-.04-1.4,3.38c-1.1.08-2.16.13-3.23-.06l6.74-15.98h4.16l6.76,16.05-3.26-.04-1.3-3.32h.01ZM312.62,94.21l-3.11-7.66-3.1,7.71,6.21-.04h0Z" fill="#231f20"/><path d="M244.43,100.57h-2.99c-2.3-.2-4.45-1.33-6.08-3.19l2.6-1.55c1.8,2.33,5.88,2.68,8.08,1.41.68-.39,1.03-1.17.9-1.83s-.6-1.28-1.31-1.41l-4.09-.7c-1.4-.24-2.91-.45-4.01-1.39s-1.4-2.54-1.14-3.96c.23-1.26,1.08-2.35,2.32-3.05,3.17-1.81,8.5-1.1,10.91,2.05l-2.53,1.44c-.85-1-1.95-1.5-3.24-1.64-2.4-.25-4.84.37-4.63,2.14.07.57.48,1.09,1.15,1.2l3.45.54c1.47.23,2.96.4,4.21,1.17,1.32.82,1.86,2.27,1.84,3.7-.03,2.9-3.1,5.07-5.45,5.07h0Z" fill="#231f20"/><path d="M347.77,100.58h-2.68c-2.63-.02-6.01-2.67-6.03-5.83l-.06-10.47h3.09l.14,10.52c.03,1.99,2.34,2.87,4.13,2.89s4.31-.82,4.34-2.89l.15-10.48,3.07-.03-.05,10.48c-.02,3.19-3.48,5.83-6.11,5.82h0Z" fill="#231f20"/><path d="M470.88,100.57v.23h-2.79l-.06-.23c-.07-.57,2.34-.49,2.58-.4l.27.4h0Z" fill="#231f20"/><path d="M548.03,100.58v.23h-2.8l-.07-.23c-.06-.57,2.35-.49,2.59-.39l.27.4h0Z" fill="#231f20"/><path d="M516.91,92.11c.14,4.55-3.14,7.98-7.54,8.22l-7.94.03v-16.07l7.94.03c4.25.02,7.48,3.43,7.55,7.78h-.01ZM513.93,92.11c-.09-2.71-1.83-4.83-4.51-4.87l-5.01-.06v10.27l4.81-.04c2.93-.02,4.8-2.34,4.71-5.31h0Z" fill="#231f20"/><polygon points="533.68 93.45 525.62 93.47 525.6 97.55 535.26 97.57 535.25 100.37 522.69 100.37 522.69 84.27 535.08 84.29 535.06 87.07 525.62 87.07 525.61 90.67 533.66 90.67 533.68 93.45" fill="#231f20"/><path d="M453.16,96.96h-8.46l-1.42,3.37-3.19-.04,6.73-15.99,4.18-.02,6.75,16c-1.04.15-2.08.12-3.22.04l-1.36-3.37h-.01ZM452,94.2l-3.04-7.63-3.16,7.69,6.21-.06h0Z" fill="#231f20"/><path d="M492.48,96.99l-8.48-.04-1.4,3.38c-1.09.08-2.14.13-3.22-.05l6.73-15.99h4.16l6.77,16.05-3.25-.03-1.31-3.32ZM491.3,94.21l-3.11-7.64-3.09,7.69,6.2-.05h0Z" fill="#231f20"/><path d="M548.03,100.58h-2.86c-2.41-.23-4.64-1.37-6.03-3.25l2.43-1.47c.65.52,1.18,1.12,1.96,1.46,3.22,1.41,7.56.41,7.1-1.96-.13-.68-.72-1.29-1.55-1.43l-4.95-.81c-1.16-.19-2.37-.51-3.17-1.45-1.38-1.61-1.28-4.14.16-5.74,2.65-2.94,9.35-2.62,12.19,1.01l-2.46,1.47c-2.44-2.69-8.25-1.99-7.95.44.08.64.56,1.17,1.23,1.28l3.84.58c1.38.21,2.93.41,4.06,1.31,2.13,1.71,1.99,5.01.02,6.83-1.14,1.05-2.58,1.74-4.03,1.74h.01Z" fill="#231f20"/><path d="M470.88,100.57h-2.85c-4.46-.56-7.58-4.51-7.28-8.82s3.88-7.67,8.33-7.81c3.32-.1,6.33,1.37,8.1,4.29l-2.62,1.44c-1.09-1.95-3.02-2.69-5.07-2.74-3.25-.07-5.77,2.24-5.77,5.38s2.52,5.44,5.78,5.38c2.12-.04,4.01-.86,5.11-2.77l2.58,1.5c-1.43,2.27-3.73,3.87-6.3,4.14h0Z" fill="#231f20"/><polygon points="436.29 91.17 436.32 93.97 428.47 93.97 428.46 100.34 425.56 100.34 425.56 84.27 437.75 84.29 437.72 87.18 428.48 87.18 428.46 91.16 436.29 91.17" fill="#231f20"/><path d="M179.93,91.16c.23.9.07,1.83.1,2.81h-7.87l-.02,6.34-2.89.03v-16.06h12.18v2.9h-9.26l-.03,4,7.8-.02h-.01Z" fill="#231f20"/><path d="M108.58,100.24c-.96.29-1.95.14-3,.1v-13.15h-5.66v-2.91h14.36v2.9h-5.68v13.06h-.02Z" fill="#231f20"/><path d="M328.23,100.24c-.96.29-1.95.14-3,.1v-13.15h-5.66v-2.91h14.36v2.9h-5.68v13.06h-.02Z" fill="#231f20"/><polygon points="261.38 100.32 258.38 100.34 258.38 87.2 252.68 87.18 252.68 84.28 267.03 84.28 267.07 87.15 261.38 87.19 261.38 100.32" fill="#231f20"/><polygon points="411.46 97.46 411.47 100.37 401.18 100.37 401.18 84.29 404.08 84.29 404.08 97.45 411.46 97.46" fill="#231f20"/><path d="M189.52,100.3c-.99.15-1.95.11-3,.04v-16.05h2.99v16.01h0Z" fill="#231f20"/><path d="M470.74,51.75l-26.21-.02-4.19,10.4-9.82-.03,20.75-49.19h12.67l20.76,49.19-9.81.02-4.15-10.36h0ZM467.32,43.54l-9.69-24-9.71,23.99h19.41-.01Z" fill="#231f20"/><path d="M504.12,20.57c-.07-.19-.14-.23-.22-.12l.02,41.65-8,.02V12.9l13.19-.03,15.65,38.55,15.66-38.54h13.25v49.21h-8.08l-.06-41.74-16.89,41.74h-7.77l-16.76-41.53h.01Z" fill="#231f20"/><path d="M563.03,12.65c3.34-.82,6.49,1.27,7.26,4.45s-1.22,6.44-4.55,7.2c-3.01.68-6.24-1.16-7.07-4.31s.96-6.49,4.35-7.33h.01ZM563.4,13.06c-3.18.59-4.97,3.66-4.3,6.66s3.51,4.74,6.5,4.12,4.89-3.49,4.28-6.46-3.3-4.91-6.48-4.32h0Z" fill="#231f20"/><path d="M504.12,20.57l-.22-.12c-.12-.37.35-.36.22.12Z" fill="#231f20"/><path d="M566.22,21.82l-1.55-1.96c-.28-.36-1-.24-1.47-.12l-.03,2.18c-.45.1-.87.11-1.32,0v-6.73h3.54c1.11,0,1.95.93,2.06,1.85.15,1.16-.43,2.01-1.55,2.41l1.71,2.44c-.41.13-1.12.3-1.41-.06h.02ZM565.01,18.49c.72,0,1.19-.43,1.19-1.06,0-.53-.33-1.08-.99-1.09l-2.02-.03v2.17h1.82Z" fill="#231f20"/><path d="M135.26,60.52c-6.9,3.4-15.82,3.26-23.01,1.01-4.94-1.6-9.12-4.56-12.41-8.61l7.68-4.57c2.33,2.5,4.9,4.4,8.08,5.5,5.24,1.5,14.65,1.61,18.19-2.25,1.15-1.26,1.75-2.66,1.57-4.36-.35-3.16-3.69-4.91-6.83-5.35l-8.94-1.25c-3.06-.43-5.9-1.01-8.8-1.95-4.5-1.45-7.6-5-8.02-9.79-.62-7.02,2.33-11.88,8.7-14.85,3.42-1.59,7.06-2.18,10.86-2.17,8.85.03,15,2.45,21.1,9.09l-7.59,4.36c-1.91-1.96-3.99-3.35-6.49-4.24-4.89-1.36-13.24-1.54-16.61,2.03-1.67,1.77-1.8,4.67.08,6.3,1.34,1.16,3.06,1.77,4.8,1.98l8.73,1.06c3.44.42,6.68,1.07,9.89,2.29s5.48,3.2,6.77,6.28c3.2,7.66-.19,15.75-7.73,19.47l-.02.02Z" fill="#231f20"/><polygon points="177.04 62.07 167.94 62.12 167.94 21.68 150.45 21.66 150.46 12.89 194.6 12.89 194.63 21.68 177.03 21.68 177.04 62.07" fill="#231f20"/></svg>